<?xml version="1.0" encoding="utf-8"?>
<!-- Generator: Adobe Illustrator 18.0.0, SVG Export Plug-In . SVG Version: 6.00 Build 0)  -->
<!DOCTYPE svg PUBLIC "-//W3C//DTD SVG 1.1//EN" "http://www.w3.org/Graphics/SVG/1.1/DTD/svg11.dtd">
<svg version="1.1" id="Capa_1" xmlns="http://www.w3.org/2000/svg" xmlns:xlink="http://www.w3.org/1999/xlink" x="0px" y="0px"
	 viewBox="6.7 374.7 42.8 36.8" enable-background="new 6.7 374.7 42.8 36.8" xml:space="preserve">
<g>
	<path fill="#497CAC" d="M49.5,393c-0.2,2.2,0.7,4.6-1.2,6.5c-0.4,0.4-0.7,1-1.3,1.1c-1.8,0.7-2.3,1.9-2.9,3.6
		c-1,3.7-2.3,4.4-6.1,4.4c-1.1,0-1.9,0.2-2.5,1.3c-1.2,2.1-7.4,2.5-8.6-0.9c-0.2-0.6-0.5-1.2-0.7-1.8c-1-2.2-1.6-2.5-4-2.3
		s-4.4-0.9-5.5-3c-0.9-1.7-2.2-2.7-3.8-3.7c-2.5-1.5-4.4-3.4-4.6-6.5c0-0.7-0.4-1.4-0.7-1.9c-0.6-0.7-0.7-1.4-0.5-2.2
		c1.4-5,4-9.2,9-11.1c2.2-0.8,4.5-1.9,6.7-1.9c2.5,0,5.2,0,7.8,0.4c2.7,0.4,5.4,0.9,8.1,1.5c4.9,0.9,7.3,4.1,9.4,8.3
		C49.1,387.6,49.7,390.1,49.5,393z"/>
	<path fill="#FFFFFF" d="M44.2,385.5c0-1.6-1.3-2.3-2.1-3.4c-0.9-1.3-2.2-2-3.9-2.2c-2.3-0.2-4.5-1.6-6.9-1.1
		c-0.2,0-0.5-0.1-0.7-0.3c-0.7-0.4-1.4-0.7-2-0.2c-0.6,0.6,0.3,1.1,0.5,1.7c0.9,2.2,0.6,3.7-1.4,4.4c-1.2,0.5-1.5,1.1-1.2,2.2
		c0.1,0.5,0.2,1,0.2,1.6c0.1,0.7-0.2,1.3-0.9,1.4c-0.7,0.1-1.2-0.4-1.2-1c-0.1-2.7-1.3-1.6-2.5-0.9c-0.2,0.1-0.4,0.2-0.7,0.3
		c-0.7,0.5-1.5,0.5-1.9-0.4c-0.5-0.8,0.3-1.3,0.8-1.6c2.2-1,4-2.7,6.3-3.7c0.6-0.2,0.7-0.6,0.6-1c-0.3-1.8-2.7-3.6-4.6-3.1
		c-1.3,0.3-2.6,1.2-3.9,1.2c-1.8,0-2.9,0.7-4,1.9c-0.7,0.7-2.4,1.6-1.8,2.2c0.9,1,2.2-0.4,3.1-1c0.7-0.5,1.1-0.7,1.6-0.1
		c0.6,0.7,0.1,1.1-0.4,1.6c-1.3,1.2-2.8,1.9-4.7,2s-2.8,1.8-1.9,3.4c0.4,0.6,0.7,1.1,0.7,1.7c-0.1,2.3,1.4,3.3,3.2,4.2
		c1,0.7,1.2,0.3,1.2-0.7c0-1,0-2.1,0.1-3.1c0.1-0.6,0.4-1.1,1.1-1.1c0.7,0,1,0.5,1.1,1.1c0,0.3-0.1,0.7,0.1,0.8
		c0.6,0.8-1.6,3.3,1.7,2.6c1-0.2,1,1.1-0.1,2.2c-0.6,0.6-1.2,1.1-0.7,2.1c0.5,1.1,1.4,2,2.5,2.2c0.8,0.1,1.9,0.2,2.3-1
		c0.6-1.4,1.7-2.2,3-2.8c1.9-1,3.9-1.1,6.1-1.1c0.6,0,1.4-0.2,0.7-0.7c-1.9-1.4-1.5-3.2-1.5-5.1c0-0.7-0.2-1.7,1.1-1.7
		c1.3,0,1.1,0.8,1.1,1.7c-0.2,3.5-0.1,3.6,3.4,4.2c0.7,0.1,1.5,0.2,1.5,1.1c0,0.8-0.3,1.6-1.1,2c-0.7,0.3-1.4,0.5-2.2,0.7
		c-0.6,0.1-1.1,0.1-1.6,0.7c-0.3,0.4-0.7,0.7-0.4,1.2c0.3,0.5,0.7,0.2,1.1,0c3-1.2,6-2.5,9.4-2.3c0.7,0,1.2-0.6,1.5-1
		c0.4-0.7-0.5-0.9-0.7-1.3c-1-1.4-2.4-2.2-3.8-3.1c-2.7-1.5-4.3-4.6-3.9-7.6c0.1-0.9,0.6-1.5,1.4-1.4c0.9,0.1,1.1,0.7,1,1.7
		c-0.4,3.1,0.7,4.8,3.6,5.9c0.7,0.3,1.4,0.6,1.9,1.2c0.3,0.4,0.6,0.7,0.9,0.2c0.8-1-0.3-4.3-1.5-4.6c-1-0.3-1.8-0.8-2.3-1.7
		c-0.4-0.5-0.9-1.2-0.4-1.7c0.6-0.5,1.4-0.5,2.1,0.2C43.9,385.1,44,385.3,44.2,385.5z"/>
	<path fill="#FFFFFF" d="M28,402.7c0.8,0.2,1.6-0.4,2.3-0.7c1.6-0.6,1.1-2,1.1-2.9c0-0.6-1.4-0.3-2.2,0c-0.7,0.3-1.4,0.6-2.1,0.9
		c-0.7,0.4-1.6,0.7-1.3,1.8C26.1,402.8,27.1,402.7,28,402.7z"/>
</g>
</svg>
